<?xml version="1.0" standalone="no"?>
<!DOCTYPE svg PUBLIC "-//W3C//DTD SVG 20010904//EN"
 "http://www.w3.org/TR/2001/REC-SVG-20010904/DTD/svg10.dtd">
<svg version="1.0" xmlns="http://www.w3.org/2000/svg"
 width="646.000000pt" height="300.000000pt" viewBox="0 0 646.000000 300.000000"
 preserveAspectRatio="xMidYMid meet">

<g transform="translate(0.000000,300.000000) scale(0.100000,-0.100000)"
fill="#000000" stroke="none">
<path d="M1938 2917 c-57 -16 -111 -56 -149 -111 -16 -23 -150 -234 -297 -471
l-269 -430 -416 -3 -417 -2 0 99 c0 144 14 197 64 247 24 25 58 46 81 53 24 7
136 11 283 11 l242 0 0 171 0 172 -297 -6 c-311 -6 -382 -14 -495 -57 -71 -26
-160 -105 -193 -169 -61 -122 -59 -95 -63 -821 l-3 -665 188 -330 188 -330 3
652 2 653 316 0 316 0 -14 -22 c-52 -81 -220 -353 -225 -364 -4 -12 30 -14
222 -12 l228 3 120 198 120 197 563 0 562 0 122 -200 123 -200 228 0 c126 0
229 3 229 7 0 6 -27 51 -192 316 l-48 77 300 0 300 0 0 -760 0 -760 185 0 185
0 0 760 0 760 289 0 288 0 6 -152 c8 -216 35 -304 123 -398 76 -81 185 -121
379 -140 62 -5 376 -10 723 -10 l612 0 0 165 0 164 -662 3 -663 3 -45 25 c-68
38 -83 78 -88 228 l-4 122 446 0 446 0 0 150 0 150 -445 0 -445 0 0 90 c0 164
28 230 112 266 37 15 86 19 353 24 l310 5 335 153 c184 84 337 155 339 158 3
3 -314 3 -704 2 -692 -3 -712 -4 -787 -25 -181 -51 -266 -134 -314 -304 -9
-32 -18 -118 -21 -207 l-6 -152 -874 2 -875 3 -279 450 c-153 247 -295 467
-315 488 -20 22 -57 48 -83 60 -57 25 -177 32 -243 14z m287 -728 l174 -284
-179 -3 c-98 -1 -262 -1 -363 0 l-185 3 159 260 c88 143 169 275 180 294 13
22 24 30 30 24 5 -5 88 -137 184 -294z"/>
</g>
</svg>
